<svg aria-hidden="true" style="position: absolute; width: 0; height: 0; overflow: hidden;" version="1.1" xmlns="http://www.w3.org/2000/svg" xmlns:xlink="http://www.w3.org/1999/xlink">
<defs>
<symbol id="icon-close" viewBox="0 0 32 32">
<path fill="#fff" style="fill: var(--color1, #fff)" d="M25.333 8.547l-1.88-1.88-7.453 7.453-7.453-7.453-1.88 1.88 7.453 7.453-7.453 7.453 1.88 1.88 7.453-7.453 7.453 7.453 1.88-1.88-7.453-7.453 7.453-7.453z"></path>
</symbol>
<symbol id="icon-food" viewBox="0 0 32 32">
<path fill="#fff" style="fill: var(--color1, #fff)" d="M3.111 16c0 7.119 5.77 12.889 12.889 12.889s12.889-5.77 12.889-12.889z"></path>
<path fill="#d5b089" style="fill: var(--color2, #d5b089)" d="M21.778 16c0 7.118-1.778 12.889-5.778 12.889 7.119 0 12.889-5.771 12.889-12.889z"></path>
<path fill="none" stroke="#bc9060" style="stroke: var(--color3, #bc9060)" stroke-linejoin="round" stroke-linecap="round" stroke-miterlimit="10" stroke-width="0.8889" d="M3.111 16c0 7.119 5.77 12.889 12.889 12.889s12.889-5.77 12.889-12.889zM3.111 11.174l3.111 3.111M12.908 3.487c0.045 0.538 0.278 1.015 0.631 1.371l-0-0c0.402 0.402 0.651 0.958 0.651 1.571s-0.249 1.169-0.651 1.571v0c-0.402 0.402-0.651 0.958-0.651 1.571s0.249 1.169 0.651 1.571v0c0.402 0.402 0.651 0.958 0.651 1.571s-0.249 1.169-0.651 1.571v0M15.364 3.127c-0.044 0.621 0.161 1.256 0.636 1.731 0.402 0.402 0.651 0.958 0.651 1.571s-0.249 1.169-0.651 1.571v0c-0.402 0.402-0.651 0.958-0.651 1.571s0.249 1.169 0.651 1.571v0c0.402 0.402 0.651 0.958 0.651 1.571s-0.249 1.169-0.651 1.571v0M17.782 3.237c-0 0.018-0.001 0.038-0.001 0.059 0 0.61 0.247 1.162 0.647 1.562v0c0.402 0.402 0.651 0.958 0.651 1.571s-0.249 1.169-0.651 1.571v0c-0.402 0.402-0.651 0.958-0.651 1.571s0.249 1.169 0.651 1.571v0c0.402 0.402 0.651 0.958 0.651 1.571s-0.249 1.169-0.651 1.571v0"></path>
</symbol>
<symbol id="icon-cart" viewBox="0 0 32 32">
<path d="M25.263 25.263c0.893 0 1.75 0.355 2.382 0.987s0.987 1.488 0.987 2.382c0 0.893-0.355 1.75-0.987 2.382s-1.488 0.987-2.382 0.987c-0.893 0-1.75-0.355-2.382-0.987s-0.987-1.488-0.987-2.382c0-0.893 0.355-1.75 0.987-2.382s1.488-0.987 2.382-0.987zM25.263 26.947c-0.447 0-0.875 0.178-1.191 0.493s-0.493 0.744-0.493 1.191c0 0.447 0.178 0.875 0.493 1.191s0.744 0.493 1.191 0.493c0.447 0 0.875-0.178 1.191-0.493s0.493-0.744 0.493-1.191c0-0.447-0.178-0.875-0.493-1.191s-0.744-0.493-1.191-0.493zM10.105 25.263c0.893 0 1.75 0.355 2.382 0.987s0.987 1.488 0.987 2.382c0 0.893-0.355 1.75-0.987 2.382s-1.488 0.987-2.382 0.987c-0.893 0-1.75-0.355-2.382-0.987s-0.987-1.488-0.987-2.382c0-0.893 0.355-1.75 0.987-2.382s1.488-0.987 2.382-0.987zM10.105 26.947c-0.447 0-0.875 0.178-1.191 0.493s-0.493 0.744-0.493 1.191c0 0.447 0.177 0.875 0.493 1.191s0.744 0.493 1.191 0.493c0.447 0 0.875-0.178 1.191-0.493s0.493-0.744 0.493-1.191c0-0.447-0.177-0.875-0.493-1.191s-0.744-0.493-1.191-0.493zM28.632 5.053h-23.124l4.295 10.105h13.777c0.556 0 1.044-0.269 1.347-0.674l5.053-6.737c0.219-0.286 0.337-0.64 0.337-1.011 0-0.447-0.178-0.875-0.493-1.191s-0.744-0.493-1.191-0.493zM23.579 16.842h-13.693l-1.297 2.627-0.168 0.741c0 0.447 0.177 0.875 0.493 1.191s0.744 0.493 1.191 0.493h18.526v1.684h-18.526c-0.893 0-1.75-0.355-2.382-0.987s-0.987-1.488-0.987-2.382c-0-0.571 0.144-1.134 0.421-1.634l1.213-2.476-6.114-14.417h-2.257v-1.684h3.368l1.432 3.368h23.832c0.893 0 1.75 0.355 2.382 0.987s0.987 1.488 0.987 2.382c0 0.842-0.286 1.549-0.758 2.122l-4.901 6.552c-0.606 0.859-1.617 1.432-2.762 1.432z"></path>
</symbol>
<symbol id="icon-phone" viewBox="0 0 32 32">
<path d="M29.474 32c0.67 0 1.313-0.266 1.786-0.74s0.74-1.116 0.74-1.786v-5.895c0-0.67-0.266-1.313-0.74-1.786s-1.116-0.74-1.786-0.74c-1.971 0-3.907-0.303-5.76-0.926-0.443-0.14-0.916-0.156-1.367-0.046s-0.864 0.341-1.193 0.669l-2.425 2.425c-4.19-2.286-7.634-5.73-9.92-9.92l2.408-2.408c0.691-0.657 0.943-1.634 0.64-2.577-0.606-1.836-0.909-3.773-0.909-5.743 0-0.67-0.266-1.313-0.74-1.786s-1.116-0.74-1.786-0.74h-5.895c-0.67 0-1.313 0.266-1.786 0.74s-0.74 1.116-0.74 1.786c0 16.253 13.221 29.474 29.474 29.474zM2.526 1.684h5.895c0.223 0 0.438 0.089 0.595 0.247s0.247 0.372 0.247 0.595c0 2.156 0.337 4.261 0.994 6.265 0.084 0.236 0.067 0.573-0.202 0.842l-3.318 3.301c2.779 5.44 6.855 9.516 12.312 12.328l3.284-3.318c0.236-0.236 0.556-0.303 0.859-0.219 2.021 0.674 4.126 1.011 6.282 1.011 0.223 0 0.438 0.089 0.596 0.247s0.247 0.372 0.247 0.596v5.895c0 0.223-0.089 0.438-0.247 0.596s-0.372 0.247-0.596 0.247c-15.326 0-27.789-12.463-27.789-27.789 0-0.223 0.089-0.438 0.247-0.595s0.372-0.247 0.595-0.247z"></path>
</symbol>
<symbol id="icon-logo" viewBox="0 0 47 32">
<path fill="none" stroke="#ff7400" style="stroke: var(--color4, #ff7400)" stroke-linejoin="miter" stroke-linecap="butt" stroke-miterlimit="4" stroke-width="1.4118" d="M0.998 15.991l14.993-14.993 14.993 14.993-14.993 14.993-14.993-14.993z"></path>
<path fill="none" stroke="#ff7400" style="stroke: var(--color4, #ff7400)" stroke-linejoin="miter" stroke-linecap="butt" stroke-miterlimit="4" stroke-width="1.4118" d="M16.075 15.991l14.993-14.993 14.993 14.993-14.993 14.993-14.993-14.993z"></path>
</symbol>
<symbol id="icon-menu" viewBox="0 0 32 32">
<path fill="#220731" style="fill: var(--color5, #220731)" d="M4 10.667v-1.333h22.667v1.333h-22.667zM26.667 16v1.333h-22.667v-1.333h22.667zM4 22.667h22.667v1.333h-22.667v-1.333z"></path>
</symbol>
</defs>
</svg>
